<svg width="24" height="24" viewBox="0 0 24 24" fill="none" xmlns="http://www.w3.org/2000/svg">
<path d="M14.5 2H9.5C9.22386 2 9 2.22386 9 2.5V4.5C9 4.77614 9.22386 5 9.5 5H14.5C14.7761 5 15 4.77614 15 4.5V2.5C15 2.22386 14.7761 2 14.5 2Z" fill="#96989A"/>
<path d="M5.875 3C5.64315 3.00071 5.42099 3.09576 5.25705 3.26439C5.0931 3.43302 5.00069 3.66152 5 3.9V20.1C5.00069 20.3385 5.0931 20.567 5.25705 20.7356C5.42099 20.9042 5.64315 20.9993 5.875 21H18.125C18.3569 20.9993 18.579 20.9042 18.743 20.7356C18.9069 20.567 18.9993 20.3385 19 20.1V3.9C18.9993 3.66152 18.9069 3.43302 18.743 3.26439C18.579 3.09576 18.3569 3.00071 18.125 3H15.5V4.35C15.5 4.70804 15.3617 5.05142 15.1156 5.30459C14.8694 5.55777 14.5356 5.7 14.1875 5.7H9.8125C9.4644 5.7 9.13056 5.55777 8.88442 5.30459C8.63828 5.05142 8.5 4.70804 8.5 4.35V3H5.875ZM16.8125 17.4H7.1875C7.07147 17.4 6.96019 17.3526 6.87814 17.2682C6.79609 17.1838 6.75 17.0693 6.75 16.95C6.75 16.8307 6.79609 16.7162 6.87814 16.6318C6.96019 16.5474 7.07147 16.5 7.1875 16.5H16.8125C16.9285 16.5 17.0398 16.5474 17.1219 16.6318C17.2039 16.7162 17.25 16.8307 17.25 16.95C17.25 17.0693 17.2039 17.1838 17.1219 17.2682C17.0398 17.3526 16.9285 17.4 16.8125 17.4ZM16.8125 12.9H7.1875C7.07147 12.9 6.96019 12.8526 6.87814 12.7682C6.79609 12.6838 6.75 12.5693 6.75 12.45C6.75 12.3307 6.79609 12.2162 6.87814 12.1318C6.96019 12.0474 7.07147 12 7.1875 12H16.8125C16.9285 12 17.0398 12.0474 17.1219 12.1318C17.2039 12.2162 17.25 12.3307 17.25 12.45C17.25 12.5693 17.2039 12.6838 17.1219 12.7682C17.0398 12.8526 16.9285 12.9 16.8125 12.9ZM16.8125 7.5C16.9285 7.5 17.0398 7.54741 17.1219 7.6318C17.2039 7.71619 17.25 7.83065 17.25 7.95C17.25 8.06935 17.2039 8.18381 17.1219 8.2682C17.0398 8.35259 16.9285 8.4 16.8125 8.4H7.1875C7.07147 8.4 6.96019 8.35259 6.87814 8.2682C6.79609 8.18381 6.75 8.06935 6.75 7.95C6.75 7.83065 6.79609 7.71619 6.87814 7.6318C6.96019 7.54741 7.07147 7.5 7.1875 7.5H16.8125Z" fill="#96989A"/>
</svg>
