<svg width="32" height="32" viewBox="0 0 32 32" fill="none" xmlns="http://www.w3.org/2000/svg">
<g clip-path="url(#clip0_1_183)">
<circle cx="16" cy="16" r="16" fill="#5ABCD0"/>
<path d="M6.89655 15.4633C6.89655 10.5035 10.9414 6.48276 15.931 6.48276C20.9206 6.48276 24.9655 10.5035 24.9655 15.4633V16.1131C24.9655 19.5189 22.188 22.2799 18.7617 22.2799H13.0483C9.65077 22.2799 6.89655 19.5421 6.89655 16.1649V15.4633Z" fill="white"/>
<path d="M22.1629 14.9521C24.3594 16.5051 24.3594 19.7476 22.1629 21.3006L16.4184 25.3618C15.986 25.6675 15.3868 25.3602 15.3868 24.8328L15.3868 14.3561C15.3868 12.598 17.3842 11.5737 18.8255 12.5927L22.1629 14.9521Z" fill="white"/>
<ellipse cx="12.3917" cy="14.2133" rx="1.21081" ry="2.1422" fill="#5ABCD0"/>
<ellipse cx="19.1909" cy="14.2133" rx="1.11767" ry="2.1422" fill="#5ABCD0"/>
</g>
<defs>
<clipPath id="clip0_1_183">
<rect width="32" height="32" fill="white"/>
</clipPath>
</defs>
</svg>
