<svg width="10" height="10" viewBox="0 0 10 10" fill="none" xmlns="http://www.w3.org/2000/svg">
<path d="M4.16667 10H5.83333H4.16667ZM4.16667 10H5.83333V4.99999H4.16667V10ZM3.83333 4.99999H0.666667V10H3.83333V4.99999ZM6.16667 10H9.33333V4.99999H6.16667V10ZM3.83333 2.99999H0V4.66666H3.83333V2.99999ZM4.16667 4.66666H5.83333V2.99999H4.16667V4.66666ZM6.16667 4.66666H10V2.99999H6.16667V4.66666ZM2.5 1.33332C2.49993 1.03767 2.59816 0.750379 2.77922 0.516654C2.96029 0.282929 3.21392 0.116031 3.50021 0.0422155C3.7865 -0.0316 4.08921 -0.00814393 4.36071 0.108894C4.63221 0.225932 4.8571 0.429909 5 0.688737C5.1137 0.482975 5.27978 0.310937 5.48142 0.190067C5.68305 0.069198 5.91306 0.00379577 6.14812 0.00049242C6.38318 -0.00281093 6.61494 0.0561021 6.81989 0.171258C7.02484 0.286413 7.19569 0.453716 7.31513 0.656202C7.43456 0.858688 7.49833 1.08916 7.49997 1.32424C7.5016 1.55932 7.44105 1.79065 7.32444 1.99478C7.20783 2.1989 7.03932 2.36857 6.83599 2.48656C6.63267 2.60456 6.40175 2.66669 6.16667 2.66666H3.83333C3.47983 2.66626 3.14093 2.52566 2.89096 2.27569C2.641 2.02573 2.5004 1.68682 2.5 1.33332ZM5.16667 1.33332V2.33332H6.16667C6.36445 2.33332 6.55779 2.27467 6.72224 2.16479C6.88669 2.05491 7.01486 1.89873 7.09055 1.716C7.16623 1.53328 7.18604 1.33221 7.14745 1.13823C7.10887 0.944249 7.01363 0.766066 6.87377 0.626213C6.73392 0.486361 6.55574 0.39112 6.36176 0.352534C6.16778 0.313949 5.96671 0.333752 5.78398 0.40944C5.60126 0.485128 5.44508 0.613301 5.3352 0.77775C5.22532 0.942199 5.16667 1.13554 5.16667 1.33332ZM2.83333 1.33332C2.83364 1.59844 2.93909 1.85262 3.12656 2.04009C3.31403 2.22756 3.56821 2.33302 3.83333 2.33332H4.83333V1.33332C4.83333 1.0681 4.72798 0.81375 4.54044 0.626213C4.3529 0.438677 4.09855 0.33332 3.83333 0.33332C3.56812 0.33332 3.31376 0.438677 3.12623 0.626213C2.93869 0.81375 2.83333 1.0681 2.83333 1.33332Z" fill="#878787"/>
</svg>
