<svg width="7" height="10" viewBox="0 0 7 10" fill="none" xmlns="http://www.w3.org/2000/svg">
<path d="M3.49933 0C1.56433 0 -0.000671387 1.565 -0.000671387 3.5C-0.000671387 6.125 3.49933 10 3.49933 10C3.49933 10 6.99933 6.125 6.99933 3.5C6.99933 1.565 5.43433 0 3.49933 0ZM3.49933 4.75C3.16781 4.75 2.84987 4.6183 2.61545 4.38388C2.38102 4.14946 2.24933 3.83152 2.24933 3.5C2.24933 3.16848 2.38102 2.85054 2.61545 2.61612C2.84987 2.3817 3.16781 2.25 3.49933 2.25C3.83085 2.25 4.14879 2.3817 4.38321 2.61612C4.61763 2.85054 4.74933 3.16848 4.74933 3.5C4.74933 3.83152 4.61763 4.14946 4.38321 4.38388C4.14879 4.6183 3.83085 4.75 3.49933 4.75Z" fill="#3880A4"/>
</svg>
