<svg width="23" height="24" viewBox="0 0 23 24" fill="none" xmlns="http://www.w3.org/2000/svg">
<g clip-path="url(#clip0_314_642)">
<path d="M14.384 14H13.6509L13.391 13.73C14.3005 12.59 14.848 11.11 14.848 9.5C14.848 5.91 12.1475 3 8.816 3C5.48448 3 2.784 5.91 2.784 9.5C2.784 13.09 5.48448 16 8.816 16C10.3101 16 11.6835 15.41 12.7414 14.43L12.992 14.71V15.5L17.632 20.49L19.0147 19L14.384 14ZM8.816 14C6.50528 14 4.64 11.99 4.64 9.5C4.64 7.01 6.50528 5 8.816 5C11.1267 5 12.992 7.01 12.992 9.5C12.992 11.99 11.1267 14 8.816 14Z" fill="#323232"/>
</g>
<defs>
<clipPath id="clip0_314_642">
<rect width="22.272" height="24" fill="white"/>
</clipPath>
</defs>
</svg>
